{
    "asset" : {
        "generator" : "Khronos glTF Blender I/O v1.8.19",
        "version" : "2.0"
    },
    "scene" : 0,
    "scenes" : [
        {
            "name" : "Scene",
            "nodes" : [
                0
            ]
        }
    ],
    "nodes" : [
        {
            "mesh" : 0,
            "name" : "\u82b1\u575b_\u7eff\u690d08"
        }
    ],
    "materials" : [
        {
            "doubleSided" : true,
            "name" : "Mat3d66-5324545-2-99106.008",
            "pbrMetallicRoughness" : {
                "baseColorFactor" : [
                    0.24313727021217346,
                    0.35686275362968445,
                    0.019607843831181526,
                    1
                ],
                "metallicFactor" : 0,
                "roughnessFactor" : 0.858578622341156
            }
        },
        {
            "doubleSided" : true,
            "name" : "Mat3d66-5324545-8-39503.014",
            "pbrMetallicRoughness" : {
                "baseColorTexture" : {
                    "index" : 0
                },
                "metallicFactor" : 0,
                "roughnessFactor" : 0.858578622341156
            }
        },
        {
            "doubleSided" : true,
            "name" : "Mat3d66-5324545-15-76802",
            "pbrMetallicRoughness" : {
                "baseColorFactor" : [
                    0.40000003576278687,
                    0.29411765933036804,
                    0.12156863510608673,
                    1
                ],
                "metallicFactor" : 0,
                "roughnessFactor" : 0.858578622341156
            }
        },
        {
            "doubleSided" : true,
            "name" : "Mat3d66-5324545-21-15344",
            "pbrMetallicRoughness" : {
                "baseColorTexture" : {
                    "index" : 1
                },
                "roughnessFactor" : 0.858578622341156
            }
        },
        {
            "doubleSided" : true,
            "name" : "Mat3d66-5324545-45-76793",
            "pbrMetallicRoughness" : {
                "baseColorTexture" : {
                    "index" : 2
                },
                "roughnessFactor" : 0.858578622341156
            }
        },
        {
            "doubleSided" : true,
            "name" : "Mat3d66-5324545-3-40412.008",
            "pbrMetallicRoughness" : {
                "baseColorTexture" : {
                    "index" : 3
                },
                "metallicFactor" : 0,
                "roughnessFactor" : 0.858578622341156
            }
        }
    ],
    "meshes" : [
        {
            "name" : "\u7f51\u683c.119",
            "primitives" : [
                {
                    "attributes" : {
                        "POSITION" : 0,
                        "NORMAL" : 1,
                        "TEXCOORD_0" : 2,
                        "TEXCOORD_1" : 3
                    },
                    "indices" : 4,
                    "material" : 0
                },
                {
                    "attributes" : {
                        "POSITION" : 5,
                        "NORMAL" : 6,
                        "TEXCOORD_0" : 7,
                        "TEXCOORD_1" : 8
                    },
                    "indices" : 9,
                    "material" : 1
                },
                {
                    "attributes" : {
                        "POSITION" : 10,
                        "NORMAL" : 11,
                        "TEXCOORD_0" : 12,
                        "TEXCOORD_1" : 13
                    },
                    "indices" : 14,
                    "material" : 2
                },
                {
                    "attributes" : {
                        "POSITION" : 15,
                        "NORMAL" : 16,
                        "TEXCOORD_0" : 17,
                        "TEXCOORD_1" : 18
                    },
                    "indices" : 19,
                    "material" : 3
                },
                {
                    "attributes" : {
                        "POSITION" : 20,
                        "NORMAL" : 21,
                        "TEXCOORD_0" : 22,
                        "TEXCOORD_1" : 23
                    },
                    "indices" : 24,
                    "material" : 4
                },
                {
                    "attributes" : {
                        "POSITION" : 25,
                        "NORMAL" : 26,
                        "TEXCOORD_0" : 27,
                        "TEXCOORD_1" : 28
                    },
                    "indices" : 29,
                    "material" : 5
                }
            ]
        }
    ],
    "textures" : [
        {
            "sampler" : 0,
            "source" : 0
        },
        {
            "sampler" : 0,
            "source" : 1
        },
        {
            "sampler" : 0,
            "source" : 2
        },
        {
            "sampler" : 0,
            "source" : 3
        }
    ],
    "images" : [
        {
            "bufferView" : 10,
            "mimeType" : "image/jpeg",
            "name" : "Image_0"
        },
        {
            "bufferView" : 21,
            "mimeType" : "image/jpeg",
            "name" : "Image_1"
        },
        {
            "bufferView" : 27,
            "mimeType" : "image/jpeg",
            "name" : "Image_2"
        },
        {
            "bufferView" : 33,
            "mimeType" : "image/jpeg",
            "name" : "Image_3"
        }
    ],
    "accessors" : [
        {
            "bufferView" : 0,
            "componentType" : 5126,
            "count" : 3581,
            "max" : [
                1.2289483547210693,
                5.008807182312012,
                1.4650098085403442
            ],
            "min" : [
                -1.633857250213623,
                2.018589973449707,
                -1.4650098085403442
            ],
            "type" : "VEC3"
        },
        {
            "bufferView" : 1,
            "componentType" : 5126,
            "count" : 3581,
            "type" : "VEC3"
        },
        {
            "bufferView" : 2,
            "componentType" : 5126,
            "count" : 3581,
            "type" : "VEC2"
        },
        {
            "bufferView" : 3,
            "componentType" : 5126,
            "count" : 3581,
            "type" : "VEC2"
        },
        {
            "bufferView" : 4,
            "componentType" : 5123,
            "count" : 5841,
            "type" : "SCALAR"
        },
        {
            "bufferView" : 5,
            "componentType" : 5126,
            "count" : 180,
            "max" : [
                2.3168351650238037,
                0.7631419897079468,
                0.8671390414237976
            ],
            "min" : [
                -2.315662384033203,
                0.7631418704986572,
                -1.0876139402389526
            ],
            "type" : "VEC3"
        },
        {
            "bufferView" : 6,
            "componentType" : 5126,
            "count" : 180,
            "type" : "VEC3"
        },
        {
            "bufferView" : 7,
            "componentType" : 5126,
            "count" : 180,
            "type" : "VEC2"
        },
        {
            "bufferView" : 8,
            "componentType" : 5126,
            "count" : 180,
            "type" : "VEC2"
        },
        {
            "bufferView" : 9,
            "componentType" : 5123,
            "count" : 189,
            "type" : "SCALAR"
        },
        {
            "bufferView" : 11,
            "componentType" : 5126,
            "count" : 933,
            "max" : [
                2.395641326904297,
                0.7631419897079468,
                0.9455474019050598
            ],
            "min" : [
                -2.395641326904297,
                -2.384185791015625e-07,
                -1.1660488843917847
            ],
            "type" : "VEC3"
        },
        {
            "bufferView" : 12,
            "componentType" : 5126,
            "count" : 933,
            "type" : "VEC3"
        },
        {
            "bufferView" : 13,
            "componentType" : 5126,
            "count" : 933,
            "type" : "VEC2"
        },
        {
            "bufferView" : 14,
            "componentType" : 5126,
            "count" : 933,
            "type" : "VEC2"
        },
        {
            "bufferView" : 15,
            "componentType" : 5123,
            "count" : 1281,
            "type" : "SCALAR"
        },
        {
            "bufferView" : 16,
            "componentType" : 5126,
            "count" : 3,
            "max" : [
                2.316570520401001,
                0.7631418704986572,
                -0.1158066987991333
            ],
            "min" : [
                2.311115026473999,
                0.7631418704986572,
                -0.12752056121826172
            ],
            "type" : "VEC3"
        },
        {
            "bufferView" : 17,
            "componentType" : 5126,
            "count" : 3,
            "type" : "VEC3"
        },
        {
            "bufferView" : 18,
            "componentType" : 5126,
            "count" : 3,
            "type" : "VEC2"
        },
        {
            "bufferView" : 19,
            "componentType" : 5126,
            "count" : 3,
            "type" : "VEC2"
        },
        {
            "bufferView" : 20,
            "componentType" : 5123,
            "count" : 3,
            "type" : "SCALAR"
        },
        {
            "bufferView" : 22,
            "componentType" : 5126,
            "count" : 329,
            "max" : [
                2.395641326904297,
                0.7631419897079468,
                0.9455474019050598
            ],
            "min" : [
                -2.395641326904297,
                0.7631418704986572,
                -1.1660488843917847
            ],
            "type" : "VEC3"
        },
        {
            "bufferView" : 23,
            "componentType" : 5126,
            "count" : 329,
            "type" : "VEC3"
        },
        {
            "bufferView" : 24,
            "componentType" : 5126,
            "count" : 329,
            "type" : "VEC2"
        },
        {
            "bufferView" : 25,
            "componentType" : 5126,
            "count" : 329,
            "type" : "VEC2"
        },
        {
            "bufferView" : 26,
            "componentType" : 5123,
            "count" : 405,
            "type" : "SCALAR"
        },
        {
            "bufferView" : 28,
            "componentType" : 5126,
            "count" : 27676,
            "max" : [
                0.8037087917327881,
                4.375868797302246,
                0.9912470579147339
            ],
            "min" : [
                -1.1195695400238037,
                0.5582852363586426,
                -1.0126944780349731
            ],
            "type" : "VEC3"
        },
        {
            "bufferView" : 29,
            "componentType" : 5126,
            "count" : 27676,
            "type" : "VEC3"
        },
        {
            "bufferView" : 30,
            "componentType" : 5126,
            "count" : 27676,
            "type" : "VEC2"
        },
        {
            "bufferView" : 31,
            "componentType" : 5126,
            "count" : 27676,
            "type" : "VEC2"
        },
        {
            "bufferView" : 32,
            "componentType" : 5123,
            "count" : 42513,
            "type" : "SCALAR"
        }
    ],
    "bufferViews" : [
        {
            "buffer" : 0,
            "byteLength" : 42972,
            "byteOffset" : 0
        },
        {
            "buffer" : 0,
            "byteLength" : 42972,
            "byteOffset" : 42972
        },
        {
            "buffer" : 0,
            "byteLength" : 28648,
            "byteOffset" : 85944
        },
        {
            "buffer" : 0,
            "byteLength" : 28648,
            "byteOffset" : 114592
        },
        {
            "buffer" : 0,
            "byteLength" : 11682,
            "byteOffset" : 143240
        },
        {
            "buffer" : 0,
            "byteLength" : 2160,
            "byteOffset" : 154924
        },
        {
            "buffer" : 0,
            "byteLength" : 2160,
            "byteOffset" : 157084
        },
        {
            "buffer" : 0,
            "byteLength" : 1440,
            "byteOffset" : 159244
        },
        {
            "buffer" : 0,
            "byteLength" : 1440,
            "byteOffset" : 160684
        },
        {
            "buffer" : 0,
            "byteLength" : 378,
            "byteOffset" : 162124
        },
        {
            "buffer" : 0,
            "byteLength" : 35843,
            "byteOffset" : 162504
        },
        {
            "buffer" : 0,
            "byteLength" : 11196,
            "byteOffset" : 198348
        },
        {
            "buffer" : 0,
            "byteLength" : 11196,
            "byteOffset" : 209544
        },
        {
            "buffer" : 0,
            "byteLength" : 7464,
            "byteOffset" : 220740
        },
        {
            "buffer" : 0,
            "byteLength" : 7464,
            "byteOffset" : 228204
        },
        {
            "buffer" : 0,
            "byteLength" : 2562,
            "byteOffset" : 235668
        },
        {
            "buffer" : 0,
            "byteLength" : 36,
            "byteOffset" : 238232
        },
        {
            "buffer" : 0,
            "byteLength" : 36,
            "byteOffset" : 238268
        },
        {
            "buffer" : 0,
            "byteLength" : 24,
            "byteOffset" : 238304
        },
        {
            "buffer" : 0,
            "byteLength" : 24,
            "byteOffset" : 238328
        },
        {
            "buffer" : 0,
            "byteLength" : 6,
            "byteOffset" : 238352
        },
        {
            "buffer" : 0,
            "byteLength" : 102990,
            "byteOffset" : 238360
        },
        {
            "buffer" : 0,
            "byteLength" : 3948,
            "byteOffset" : 341352
        },
        {
            "buffer" : 0,
            "byteLength" : 3948,
            "byteOffset" : 345300
        },
        {
            "buffer" : 0,
            "byteLength" : 2632,
            "byteOffset" : 349248
        },
        {
            "buffer" : 0,
            "byteLength" : 2632,
            "byteOffset" : 351880
        },
        {
            "buffer" : 0,
            "byteLength" : 810,
            "byteOffset" : 354512
        },
        {
            "buffer" : 0,
            "byteLength" : 148905,
            "byteOffset" : 355324
        },
        {
            "buffer" : 0,
            "byteLength" : 332112,
            "byteOffset" : 504232
        },
        {
            "buffer" : 0,
            "byteLength" : 332112,
            "byteOffset" : 836344
        },
        {
            "buffer" : 0,
            "byteLength" : 221408,
            "byteOffset" : 1168456
        },
        {
            "buffer" : 0,
            "byteLength" : 221408,
            "byteOffset" : 1389864
        },
        {
            "buffer" : 0,
            "byteLength" : 85026,
            "byteOffset" : 1611272
        },
        {
            "buffer" : 0,
            "byteLength" : 110473,
            "byteOffset" : 1696300
        }
    ],
    "samplers" : [
        {
            "magFilter" : 9729,
            "minFilter" : 9987
        }
    ],
    "buffers" : [
        {
            "byteLength" : 1806776,
            "uri" : "data:application/octet-stream;base64,"
        }
    ]
}
