{
    "asset" : {
        "generator" : "Khronos glTF Blender I/O v1.8.19",
        "version" : "2.0"
    },
    "scene" : 0,
    "scenes" : [
        {
            "name" : "Scene",
            "nodes" : [
                0
            ]
        }
    ],
    "nodes" : [
        {
            "mesh" : 0,
            "name" : "\u673a\u67dc02"
        }
    ],
    "materials" : [
        {
            "doubleSided" : true,
            "name" : "qingmo_6ff3245d-efb5-447d-8ab0-00f866741d7f",
            "pbrMetallicRoughness" : {
                "baseColorTexture" : {
                    "index" : 0
                },
                "metallicFactor" : 0.20472441613674164,
                "roughnessFactor" : 0.7047244310379028
            }
        },
        {
            "doubleSided" : true,
            "name" : "qingmo_9d70b22b-61aa-4067-9955-bef27312b22f",
            "pbrMetallicRoughness" : {
                "baseColorTexture" : {
                    "index" : 1
                },
                "metallicFactor" : 0.21259842813014984,
                "roughnessFactor" : 0.7204724550247192
            }
        }
    ],
    "meshes" : [
        {
            "name" : "Obj3d66-4988378-465-754",
            "primitives" : [
                {
                    "attributes" : {
                        "POSITION" : 0,
                        "NORMAL" : 1,
                        "TEXCOORD_0" : 2
                    },
                    "indices" : 3,
                    "material" : 0
                },
                {
                    "attributes" : {
                        "POSITION" : 4,
                        "NORMAL" : 5,
                        "TEXCOORD_0" : 6
                    },
                    "indices" : 7,
                    "material" : 1
                }
            ]
        }
    ],
    "textures" : [
        {
            "sampler" : 0,
            "source" : 0
        },
        {
            "sampler" : 0,
            "source" : 1
        }
    ],
    "images" : [
        {
            "bufferView" : 4,
            "mimeType" : "image/jpeg",
            "name" : "Image_0"
        },
        {
            "bufferView" : 9,
            "mimeType" : "image/jpeg",
            "name" : "Image_1"
        }
    ],
    "accessors" : [
        {
            "bufferView" : 0,
            "componentType" : 5126,
            "count" : 78,
            "max" : [
                0.4824981689453125,
                2.0000030994415283,
                0.7620029449462891
            ],
            "min" : [
                -0.4825000762939453,
                -5.21540641784668e-08,
                -0.7620010375976562
            ],
            "type" : "VEC3"
        },
        {
            "bufferView" : 1,
            "componentType" : 5126,
            "count" : 78,
            "type" : "VEC3"
        },
        {
            "bufferView" : 2,
            "componentType" : 5126,
            "count" : 78,
            "type" : "VEC2"
        },
        {
            "bufferView" : 3,
            "componentType" : 5123,
            "count" : 78,
            "type" : "SCALAR"
        },
        {
            "bufferView" : 5,
            "componentType" : 5126,
            "count" : 6,
            "max" : [
                0.4824981689453125,
                2.0000030994415283,
                -0.7619972229003906
            ],
            "min" : [
                -0.4825000762939453,
                2.9802322387695312e-06,
                -0.7620010375976562
            ],
            "type" : "VEC3"
        },
        {
            "bufferView" : 6,
            "componentType" : 5126,
            "count" : 6,
            "type" : "VEC3"
        },
        {
            "bufferView" : 7,
            "componentType" : 5126,
            "count" : 6,
            "type" : "VEC2"
        },
        {
            "bufferView" : 8,
            "componentType" : 5123,
            "count" : 6,
            "type" : "SCALAR"
        }
    ],
    "bufferViews" : [
        {
            "buffer" : 0,
            "byteLength" : 936,
            "byteOffset" : 0
        },
        {
            "buffer" : 0,
            "byteLength" : 936,
            "byteOffset" : 936
        },
        {
            "buffer" : 0,
            "byteLength" : 624,
            "byteOffset" : 1872
        },
        {
            "buffer" : 0,
            "byteLength" : 156,
            "byteOffset" : 2496
        },
        {
            "buffer" : 0,
            "byteLength" : 33233,
            "byteOffset" : 2652
        },
        {
            "buffer" : 0,
            "byteLength" : 72,
            "byteOffset" : 35888
        },
        {
            "buffer" : 0,
            "byteLength" : 72,
            "byteOffset" : 35960
        },
        {
            "buffer" : 0,
            "byteLength" : 48,
            "byteOffset" : 36032
        },
        {
            "buffer" : 0,
            "byteLength" : 12,
            "byteOffset" : 36080
        },
        {
            "buffer" : 0,
            "byteLength" : 325402,
            "byteOffset" : 36092
        }
    ],
    "samplers" : [
        {
            "magFilter" : 9729,
            "minFilter" : 9987
        }
    ],
    "buffers" : [
        {
            "byteLength" : 361496,
            "uri" : "data:application/octet-stream;base64,"
        }
    ]
}
