<svg width="24" height="24" viewBox="0 0 24 24" fill="none" xmlns="http://www.w3.org/2000/svg">
<path d="M13.6669 7.41672C13.6669 9.7179 11.8014 11.5833 9.50021 11.5833C7.19904 11.5833 5.3335 9.7179 5.3335 7.41672C5.3335 5.11554 7.19904 3.25 9.50021 3.25C11.8014 3.25 13.6669 5.11554 13.6669 7.41672Z" fill="#738379"/>
<path d="M13.0417 13.25H5.95828C3.77582 13.25 2 15.0258 2 17.2083V20.125C2 20.47 2.28 20.75 2.625 20.75H16.375C16.72 20.75 17 20.47 17 20.125V17.2083C17 15.0258 15.2242 13.25 13.0417 13.25Z" fill="#738379"/>
<path d="M21.8007 10.2916L18.8839 7.58334C18.7664 7.47409 18.6131 7.41748 18.459 7.41748C18.0456 7.41748 17.8331 7.7692 17.8331 8.04172V9.91672H14.4998C14.039 9.91672 13.6665 10.2899 13.6665 10.75C13.6665 11.2101 14.039 11.5833 14.4998 11.5833H17.8331V13.4583C17.8331 13.805 18.1147 14.0833 18.4581 14.0833C18.6131 14.0833 18.7657 14.0259 18.8839 13.9167L21.8007 11.2084C21.9273 11.09 21.9998 10.9233 21.9998 10.75C21.9998 10.5767 21.9273 10.41 21.8007 10.2916Z" fill="#738379"/>
</svg>
