<svg width="32" height="32" viewBox="0 0 32 32" fill="none" xmlns="http://www.w3.org/2000/svg">
<circle cx="16" cy="16" r="16" fill="#C3CAD6"/>
<mask id="mask0_15_3021" style="mask-type:alpha" maskUnits="userSpaceOnUse" x="0" y="0" width="32" height="32">
<circle cx="16" cy="16" r="16" fill="#C3CAD6"/>
</mask>
<g mask="url(#mask0_15_3021)">
<path d="M4.91892 30.6346C4.91892 30.8823 5.12562 31.0831 5.38062 31.0831L26.6181 31.0832C26.8731 31.0832 27.0798 30.8824 27.0798 30.6348V30.0991C27.0904 29.9377 27.112 29.1322 26.5811 28.2417C26.2462 27.6802 25.7603 27.1951 25.1367 26.7999C24.3823 26.3219 23.4227 25.9755 22.262 25.767C22.2534 25.7659 21.3928 25.6518 20.5111 25.4266C18.9757 25.0344 18.8414 24.6873 18.8406 24.6839C18.8315 24.6496 18.8185 24.6167 18.8017 24.5857C18.7892 24.521 18.7581 24.2773 18.8175 23.6244C18.9681 21.9663 19.8575 20.9863 20.5722 20.1989C20.7976 19.9505 21.0105 19.716 21.1745 19.486C21.8817 18.4937 21.9473 17.3654 21.9503 17.2955C21.9503 17.1538 21.934 17.0373 21.8992 16.9293C21.8297 16.7133 21.6991 16.5786 21.6038 16.4804L21.6031 16.4797C21.5791 16.4549 21.5564 16.4315 21.5378 16.4099C21.5308 16.4017 21.512 16.38 21.5291 16.2683C21.5919 15.8571 21.6295 15.5128 21.6476 15.1848C21.6798 14.6004 21.705 13.7264 21.5542 12.8759C21.5356 12.7306 21.5037 12.5772 21.4539 12.3945C21.2946 11.8088 21.0388 11.308 20.6833 10.8947C20.6222 10.8282 19.1358 9.2623 14.821 8.94101C14.2244 8.89659 13.6346 8.92052 13.054 8.95019C12.9141 8.95711 12.7224 8.96661 12.5431 9.01307C12.0976 9.12847 11.9788 9.41084 11.9475 9.56887C11.8958 9.83063 11.9868 10.0343 12.0469 10.169C12.0556 10.1886 12.0664 10.2127 12.0476 10.2757C11.9474 10.4308 11.7899 10.5706 11.6292 10.7031C11.5828 10.7426 10.5008 11.6755 10.4413 12.8942C10.2809 13.8211 10.293 15.2652 10.4827 16.2632C10.4938 16.3184 10.51 16.4 10.4836 16.4551C10.2796 16.6379 10.0484 16.8451 10.049 17.3179C10.0514 17.3654 10.1171 18.4937 10.8243 19.486C10.9881 19.7158 11.2008 19.9502 11.426 20.1983L11.4265 20.1989C12.1412 20.9863 13.0306 21.9663 13.1813 23.6244C13.2406 24.2772 13.2095 24.521 13.197 24.5857C13.1803 24.6166 13.1672 24.6496 13.1582 24.6839C13.1573 24.6873 13.0236 25.0332 11.4951 25.4246C10.6134 25.6504 9.74529 25.7658 9.71939 25.7695C8.5914 25.9599 7.63764 26.2977 6.88463 26.7732C6.26316 27.1657 5.77632 27.6517 5.4376 28.2177C4.89643 29.1219 4.91106 29.9455 4.91892 30.0958V30.6346Z" fill="#A3AAB5" stroke="#A3AAB5" stroke-linejoin="round"/>
<path d="M18.8407 24.6839C18.8316 24.6496 18.8186 24.6167 18.8018 24.5857C18.7893 24.521 18.7582 24.2773 18.8176 23.6244C18.9682 21.9663 19.8576 20.9863 20.5723 20.1989C20.7977 19.9505 21.0106 19.716 21.1746 19.486C21.8818 18.4937 21.9474 17.3654 21.9504 17.2955C21.9504 17.1538 21.9341 17.0373 21.8993 16.9293C21.8298 16.7133 21.6992 16.5786 21.6039 16.4804C21.5798 16.4556 21.5565 16.4315 21.5379 16.4099C21.5309 16.4017 21.5121 16.38 21.5292 16.2683C21.592 15.8571 21.6296 15.5128 21.6477 15.1848C21.6799 14.6004 21.7051 13.7264 21.5543 12.8759C21.5357 12.7306 21.5038 12.5772 21.454 12.3945C21.2947 11.8088 21.0389 11.308 20.6834 10.8947C20.6223 10.8282 19.1359 9.2623 14.8211 8.94101C14.2245 8.89659 13.6347 8.92052 13.0541 8.95019C12.9142 8.95711 12.7225 8.96661 12.5432 9.01307C12.0977 9.12847 11.9789 9.41084 11.9476 9.56887C11.8959 9.83063 11.9868 10.0343 12.047 10.169C12.0557 10.1886 12.0665 10.2127 12.0477 10.2757C11.9475 10.4308 11.79 10.5706 11.6293 10.7031C11.5829 10.7426 10.5009 11.6755 10.4414 12.8942C10.281 13.8211 10.2931 15.2652 10.4828 16.2632C10.4939 16.3184 10.5101 16.4 10.4837 16.4551C10.2797 16.6379 10.0485 16.8451 10.0491 17.3179C10.0515 17.3654 10.1171 18.4937 10.8244 19.486C10.9882 19.7158 11.2009 19.9502 11.4261 20.1983C12.1408 20.9857 13.0307 21.9663 13.1814 23.6244C13.2407 24.2772 13.2096 24.521 13.1971 24.5857C13.1803 24.6166 13.1673 24.6496 13.1583 24.6839C12.5 27.9999 19.5 27.9999 18.8407 24.6839Z" fill="#F8E9D7" stroke="#F8E9D7" stroke-linejoin="round"/>
<path d="M21.5543 12.8759C21.5357 12.7306 21.5038 12.5772 21.454 12.3945C21.2947 11.8088 21.0389 11.308 20.6834 10.8947C20.6223 10.8282 19.1359 9.2623 14.8211 8.94101C14.2245 8.89659 13.6347 8.92052 13.0541 8.95019C12.9142 8.95711 12.7225 8.96661 12.5432 9.01307C12.0977 9.12847 11.9789 9.41084 11.9476 9.56887C11.8959 9.83063 11.9868 10.0343 12.047 10.169C12.0557 10.1886 12.0665 10.2127 12.0477 10.2757C11.9475 10.4308 11.79 10.5706 11.6293 10.7031C11.5829 10.7426 10.5009 11.6755 10.4414 12.8942C9.59237 17.7998 12.1946 12.7985 14.5 13.9999C18.0781 15.8645 19 12.4999 22 14.4999C22.3739 14.1947 21.6317 13.4799 21.5543 12.8759Z" fill="#696969" stroke="#696969" stroke-linejoin="round"/>
</g>
</svg>
